<?xml version="1.0" encoding="UTF-8" standalone="no"?>
<svg width="60px" height="64px" viewBox="0 0 80 84" version="1.1" xmlns="http://www.w3.org/2000/svg" xmlns:xlink="http://www.w3.org/1999/xlink">
    <!-- Generator: Sketch 39.1 (31720) - http://www.bohemiancoding.com/sketch -->
    <title>Shape</title>
    <desc>Created with Sketch.</desc>
    <defs></defs>
    <g id="Page-1" stroke="none" stroke-width="1" fill="none" fill-rule="evenodd">
        <g id="swan-with-a-heart-symbol-of-fidelity" fill="#00ADB5">
            <path d="M53.1261441,33.1923713 C34.9013284,28.1756881 25.5380785,43.7260078 25.0362373,48.7426911 C24.5343962,53.7595315 23.3640096,56.267009 21.3582161,56.267009 C19.3524227,56.267009 17.8468992,49.4112365 23.1973053,41.7202144 C28.5475542,34.0291922 49.1133003,18.6469908 33.7310989,4.43376194 C18.0137606,-8.77578463 3.13340036,10.9545546 6.14287611,19.1474179 C7.18709538,22.742794 9.94706463,24.3309626 9.94706463,24.3309626 C9.94706463,24.3309626 6.39379669,28.9284498 7.31326271,30.1411017 C8.23272873,31.3535964 14.6708763,24.9154488 14.9202257,24.3309626 C15.1711463,23.7450622 19.6019292,22.4078142 18.682306,14.8834964 C17.76284,7.35917852 32.8941209,9.11562257 26.3734853,20.8198028 C19.8528498,32.5238259 -1.71657863,38.7094817 0.122510525,59.7769118 C0.122510525,59.7769118 1.79473828,89.2040666 49.2800046,82.0147285 C49.2800046,82.0147285 83.5555672,76.4977753 79.7108417,39.8798683 C68.8434824,42.8891869 66.6694135,37.538938 53.1261441,33.1923713 L53.1261441,33.1923713 Z M63.1687808,55.0485437 L62.9703382,54.9162486 C57.4156762,52.6746181 55.3845865,47.6923441 57.8304729,45.4508708 C60.2763594,43.2076691 63.0784368,46.2652235 63.0784368,46.2652235 L63.0994909,46.2652235 C63.0994909,46.2652235 65.9017254,43.2076691 68.3476118,45.4494567 C70.7936554,47.6925013 68.7232857,52.8054991 63.1687808,55.0485437 L63.1687808,55.0485437 Z" id="Shape"></path>
        </g>
    </g>
</svg>
